<svg width="30" height="31" viewBox="0 0 30 31" fill="none" xmlns="http://www.w3.org/2000/svg">
<g clip-path="url(#clip0_166_428)">
<path fill-rule="evenodd" clip-rule="evenodd" d="M27.6094 0.724963C27.7448 0.80988 27.8566 0.928459 27.9342 1.06946C28.0118 1.21045 28.0525 1.3692 28.0526 1.53064V29.9662C28.0526 30.2176 27.9541 30.4587 27.7787 30.6365C27.6034 30.8142 27.3655 30.9141 27.1175 30.9141H21.507C21.259 30.9141 21.0212 30.8142 20.8458 30.6365C20.6704 30.4587 20.5719 30.2176 20.5719 29.9662V27.1227H18.7017V29.9662C18.7017 30.2176 18.6032 30.4587 18.4279 30.6365C18.2525 30.8142 18.0147 30.9141 17.7666 30.9141H0.935087C0.687086 30.9141 0.449243 30.8142 0.273881 30.6365C0.0985178 30.4587 0 30.2176 0 29.9662V19.5398C0.000148953 19.341 0.0619927 19.1472 0.176778 18.986C0.291563 18.8247 0.453476 18.7041 0.639599 18.6413L11.221 15.066V9.11346C11.221 8.93758 11.2693 8.76517 11.3605 8.61552C11.4516 8.46586 11.5821 8.34487 11.7372 8.26608L26.6986 0.683257C26.8413 0.610852 26.9999 0.576673 27.1593 0.583974C27.3188 0.591274 27.4737 0.63981 27.6094 0.724963ZM11.221 17.0641L1.87017 20.2223V29.0184H11.221V17.0641ZM13.0912 29.0184H16.8316V26.1748C16.8316 25.9234 16.9301 25.6823 17.1054 25.5046C17.2808 25.3268 17.5187 25.227 17.7666 25.227H21.507C21.755 25.227 21.9928 25.3268 22.1682 25.5046C22.3436 25.6823 22.4421 25.9234 22.4421 26.1748V29.0184H26.1824V3.06426L13.0912 9.69923V29.0184Z" fill="black"/>
<path d="M3.74036 21.4357H5.61053V23.3314H3.74036V21.4357ZM7.4807 21.4357H9.35088V23.3314H7.4807V21.4357ZM3.74036 25.2271H5.61053V27.1228H3.74036V25.2271ZM7.4807 25.2271H9.35088V27.1228H7.4807V25.2271ZM14.9614 17.6443H16.8316V19.54H14.9614V17.6443ZM18.7017 17.6443H20.5719V19.54H18.7017V17.6443ZM14.9614 21.4357H16.8316V23.3314H14.9614V21.4357ZM18.7017 21.4357H20.5719V23.3314H18.7017V21.4357ZM22.4421 17.6443H24.3123V19.54H22.4421V17.6443ZM22.4421 21.4357H24.3123V23.3314H22.4421V21.4357ZM14.9614 13.8528H16.8316V15.7485H14.9614V13.8528ZM18.7017 13.8528H20.5719V15.7485H18.7017V13.8528ZM22.4421 13.8528H24.3123V15.7485H22.4421V13.8528ZM14.9614 10.0614H16.8316V11.9571H14.9614V10.0614ZM18.7017 10.0614H20.5719V11.9571H18.7017V10.0614ZM22.4421 10.0614H24.3123V11.9571H22.4421V10.0614ZM22.4421 6.27002H24.3123V8.16572H22.4421V6.27002Z" fill="black"/>
</g>
<defs>
<clipPath id="clip0_166_428">
<rect width="29.9228" height="30.3313" fill="white" transform="translate(0 0.583008)"/>
</clipPath>
</defs>
</svg>
