<svg width="27" height="37" viewBox="0 0 27 37" fill="none" xmlns="http://www.w3.org/2000/svg">
<g clip-path="url(#clip0_166_880)">
<path d="M15.2533 11.3451C15.2533 13.1504 14.7381 14.8818 13.8209 16.1583C12.9037 17.4349 11.6597 18.1521 10.3626 18.1521C9.06556 18.1521 7.8216 17.4349 6.90442 16.1583C5.98724 14.8818 5.47197 13.1504 5.47197 11.3451C5.47197 9.53975 5.98724 7.80836 6.90442 6.53181C7.8216 5.25525 9.06556 4.53809 10.3626 4.53809C11.6597 4.53809 12.9037 5.25525 13.8209 6.53181C14.7381 7.80836 15.2533 9.53975 15.2533 11.3451ZM0.581299 29.497C0.581299 31.766 2.21152 31.766 2.21152 31.766H18.5138C18.5138 31.766 20.144 31.766 20.144 29.497C20.144 27.228 18.5138 20.421 10.3626 20.421C2.21152 20.421 0.581299 27.228 0.581299 29.497ZM22.5893 11.1409C24.8505 7.90754 30.5041 13.5687 22.5893 20.8454C14.6762 13.5687 20.3282 7.90754 22.5893 11.1431V11.1409Z" fill="black"/>
</g>
<defs>
<clipPath id="clip0_166_880">
<rect width="26.0836" height="36.3039" fill="white" transform="translate(0.581299)"/>
</clipPath>
</defs>
</svg>
