<svg width="30" height="31" viewBox="0 0 30 31" fill="none" xmlns="http://www.w3.org/2000/svg">
<g clip-path="url(#clip0_166_431)">
<path fill-rule="evenodd" clip-rule="evenodd" d="M29.9228 1.5298C29.9227 1.38962 29.8919 1.25121 29.8327 1.12453C29.7735 0.997847 29.6873 0.886058 29.5804 0.797212C29.4734 0.708366 29.3483 0.644676 29.2141 0.610731C29.08 0.576785 28.94 0.573429 28.8044 0.600904L19.6368 2.4587L10.4692 0.600904C10.3482 0.576391 10.2237 0.576391 10.1027 0.600904L0.75181 2.49661C0.53991 2.53954 0.349219 2.65554 0.212159 2.82489C0.0750989 2.99423 0.000130505 3.20646 0 3.42551L0 29.9654C8.35084e-05 30.1056 0.0308395 30.244 0.0900522 30.3707C0.149265 30.4973 0.23546 30.6091 0.342428 30.698C0.449395 30.7868 0.574472 30.8505 0.708647 30.8845C0.842822 30.9184 0.982755 30.9218 1.11836 30.8943L10.286 29.0365L19.4535 30.8943C19.5745 30.9187 19.6991 30.9187 19.8201 30.8943L29.171 28.9986C29.3829 28.9556 29.5736 28.8396 29.7106 28.6703C29.8477 28.501 29.9226 28.2887 29.9228 28.0697V1.5298ZM9.35087 27.2924V2.68618L10.286 2.49661L11.221 2.68618V27.2924L10.4692 27.1408C10.3483 27.1162 10.2237 27.1162 10.1027 27.1408L9.35087 27.2924ZM18.7017 28.809V4.20274L19.4535 4.3544C19.5745 4.37891 19.6991 4.37891 19.8201 4.3544L20.5719 4.20274V28.809L19.6368 28.9986L18.7017 28.809Z" fill="black"/>
</g>
<defs>
<clipPath id="clip0_166_431">
<rect width="29.9228" height="30.3313" fill="white" transform="translate(0 0.582031)"/>
</clipPath>
</defs>
</svg>
