<svg width="31" height="37" viewBox="0 0 31 37" fill="none" xmlns="http://www.w3.org/2000/svg">
<path d="M15.1567 3.02539C6.95314 3.02539 2.52612 10.0396 2.52612 16.6394C2.52612 19.8598 3.80055 22.6582 6.31529 24.9711V31.766H10.1045V27.228H12.6306V31.766H17.6828V27.228H20.2089V31.766H23.9981V24.9696C26.5128 22.6582 27.7873 19.8583 27.7873 16.6394C27.7873 10.0396 23.3602 3.02539 15.1567 3.02539ZM10.1045 19.6647C8.68858 19.6647 7.57835 18.0038 7.57835 15.883C7.57835 13.7623 8.68858 12.1014 10.1045 12.1014C11.5204 12.1014 12.6306 13.7623 12.6306 15.883C12.6306 18.0038 11.5204 19.6647 10.1045 19.6647ZM20.2089 19.6647C18.793 19.6647 17.6828 18.0038 17.6828 15.883C17.6828 13.7623 18.793 12.1014 20.2089 12.1014C21.6248 12.1014 22.735 13.7623 22.735 15.883C22.735 18.0038 21.6248 19.6647 20.2089 19.6647Z" fill="black"/>
</svg>
