<svg width="31" height="32" viewBox="0 0 31 32" fill="none" xmlns="http://www.w3.org/2000/svg">
<g clip-path="url(#clip0_166_425)">
<path d="M13.0441 16.1076C13.0985 16.0253 13.1262 15.9277 13.1231 15.8287C13.12 15.7296 13.0864 15.634 13.027 15.5554C12.9675 15.4767 12.8852 15.4189 12.7917 15.3901C12.6981 15.3613 12.598 15.3629 12.5055 15.3948L9.7002 16.3427L9.99755 17.2412L11.5087 16.7294L10.3959 18.4241C10.3418 18.5063 10.3143 18.6036 10.3174 18.7023C10.3205 18.8011 10.3539 18.8964 10.4131 18.9749C10.4722 19.0534 10.5541 19.1113 10.6472 19.1403C10.7404 19.1694 10.8402 19.1682 10.9326 19.1369L12.4437 18.6251L11.331 20.3198C11.2769 20.402 11.2494 20.4993 11.2525 20.598C11.2556 20.6968 11.289 20.7921 11.3481 20.8706C11.4073 20.9491 11.4892 21.007 11.5823 21.036C11.6755 21.0651 11.7753 21.0639 11.8677 21.0326L14.673 20.0848L14.3756 19.1862L12.8645 19.6981L13.9792 18.0033C14.0336 17.921 14.0613 17.8235 14.0582 17.7244C14.0551 17.6253 14.0215 17.5298 13.9621 17.4511C13.9026 17.3724 13.8203 17.3146 13.7268 17.2858C13.6332 17.257 13.5331 17.2586 13.4405 17.2905L11.9294 17.8023L13.0441 16.1076V16.1076Z" fill="black"/>
<path d="M15.4659 31.0095C19.4339 31.0095 23.2394 29.4117 26.0452 26.5676C28.851 23.7235 30.4273 19.866 30.4273 15.8439C30.4273 11.8217 28.851 7.96425 26.0452 5.12014C23.2394 2.27603 19.4339 0.678223 15.4659 0.678223C11.4979 0.678223 7.69241 2.27603 4.88661 5.12014C2.0808 7.96425 0.504517 11.8217 0.504517 15.8439C0.504517 19.866 2.0808 23.7235 4.88661 26.5676C7.69241 29.4117 11.4979 31.0095 15.4659 31.0095V31.0095ZM3.86709 22.003L7.58499 18.8618C6.89022 17.0046 6.85654 14.9599 7.48977 13.0803C8.12301 11.2006 9.38346 9.60385 11.0538 8.56534C12.7241 7.52684 14.6995 7.11168 16.6395 7.39147C18.5794 7.67126 20.3622 8.62845 21.6805 10.098L14.5252 13.0003L16.3954 17.7396L18.8883 23.6352C17.841 24.111 16.6815 24.3745 15.4603 24.3745C14.4432 24.3756 13.4344 24.1893 12.483 23.8248L9.38223 27.5972C7.02784 26.341 5.10478 24.3904 3.86709 22.003ZM23.8742 15.8439C23.8757 17.1295 23.5899 18.3987 23.0383 19.5564C22.4867 20.714 21.6836 21.73 20.6893 22.5281L18.2656 16.7917L23.7994 14.6875C23.8499 15.0666 23.8742 15.4515 23.8742 15.8439V15.8439Z" fill="black"/>
</g>
<defs>
<clipPath id="clip0_166_425">
<rect width="29.9228" height="30.3313" fill="white" transform="translate(0.504517 0.678223)"/>
</clipPath>
</defs>
</svg>
