<svg width="31" height="30" viewBox="0 0 31 30" fill="none" xmlns="http://www.w3.org/2000/svg">
<path d="M3.78912 1.875C3.28664 1.875 2.80475 2.07254 2.44944 2.42417C2.09414 2.77581 1.89453 3.25272 1.89453 3.75V12.3488C1.89464 12.846 2.09432 13.3228 2.44964 13.6744L15.7117 26.7994C16.067 27.1509 16.5488 27.3484 17.0512 27.3484C17.5536 27.3484 18.0354 27.1509 18.3907 26.7994L27.0793 18.2006C27.4344 17.849 27.634 17.3722 27.634 16.875C27.634 16.3778 27.4344 15.901 27.0793 15.5494L13.8172 2.42437C13.4619 2.07272 12.9801 1.87511 12.4777 1.875H3.78912ZM11.3675 8.4375C11.3675 9.18342 11.068 9.89879 10.5351 10.4262C10.0021 10.9537 9.27929 11.25 8.52558 11.25C7.77187 11.25 7.04903 10.9537 6.51607 10.4262C5.98311 9.89879 5.6837 9.18342 5.6837 8.4375C5.6837 7.69158 5.98311 6.97621 6.51607 6.44876C7.04903 5.92132 7.77187 5.625 8.52558 5.625C9.27929 5.625 10.0021 5.92132 10.5351 6.44876C11.068 6.97621 11.3675 7.69158 11.3675 8.4375Z" fill="black"/>
</svg>
