<svg width="30" height="41" viewBox="0 0 30 41" fill="none" xmlns="http://www.w3.org/2000/svg">
<path d="M29.3795 27.6209L28.0518 24.6599L25.1973 26.6258L26.5233 29.5807C26.6017 29.7526 26.6572 29.9306 26.6931 30.1146C26.7531 30.4488 26.7453 30.7963 26.6703 31.1259C26.6306 31.2928 26.5735 31.4525 26.5004 31.6011C26.3626 31.8934 26.1678 32.1382 25.9338 32.3131C25.6805 32.4993 25.3905 32.5952 25.096 32.5901H17.5824V28.5452L11.0503 34.6126L17.5824 40.6801V36.6351H25.096C25.55 36.6351 25.9974 36.5603 26.4204 36.4147C27.2374 36.1355 27.9805 35.5941 28.5744 34.8452C28.8651 34.4832 29.1165 34.0767 29.319 33.6459C29.9635 32.297 30.1602 30.691 29.8677 29.1661C29.7598 28.6269 29.5957 28.1075 29.3795 27.6209ZM4.29278 18.5116L0.520473 27.8555C0.325134 28.3392 0.181839 28.8526 0.0942509 29.3825C-0.0653208 30.3749 -0.0217481 31.401 0.220995 32.3671C0.463737 33.3333 0.897926 34.2089 1.48396 34.914C1.77464 35.2659 2.09798 35.5733 2.45562 35.8302C3.20116 36.3577 4.04492 36.6351 4.90354 36.6351H7.78421V32.5901H4.90354C4.61762 32.5911 4.33635 32.5005 4.08702 32.3272C3.84887 32.1575 3.65026 31.9144 3.51056 31.6214C3.36718 31.3358 3.28355 31.0105 3.26724 30.6748C3.25936 30.5088 3.26924 30.3422 3.29663 30.1793C3.32603 30.0034 3.37502 29.8294 3.44197 29.6616L7.1261 20.5361L9.73732 22.4028L8.76077 12.3652L1.25207 16.3374L4.29278 18.5116ZM25.0911 22.4049L26.0677 12.3652L23.3928 14.2765L18.75 3.92738C18.426 3.1913 17.9802 2.54807 17.442 2.03963C16.9037 1.53119 16.2849 1.16897 15.626 0.976567C15.2128 0.857973 14.7895 0.80161 14.3653 0.8087C13.5019 0.828749 12.658 1.13085 11.9191 1.68444C11.1303 2.27737 10.4946 3.13692 10.0868 4.16199L8.89141 7.12292L11.8129 8.93305L13.0083 5.9701C13.0818 5.78807 13.1732 5.62425 13.2794 5.48066C13.474 5.21759 13.7248 5.02824 14.0028 4.93458C14.2851 4.83588 14.583 4.82822 14.8683 4.91234C15.0863 4.9757 15.2908 5.09599 15.4683 5.26516C15.6457 5.43432 15.7919 5.64846 15.8971 5.89325L20.5643 16.301L17.5824 18.4327L25.0911 22.4049Z" fill="black"/>
</svg>
