<svg width="154" height="105" viewBox="0 0 154 105" fill="none" xmlns="http://www.w3.org/2000/svg">
<g clip-path="url(#clip0_166_2035)">
<path d="M53.3706 100.579C53.2485 100.585 53.1276 100.553 53.0243 100.487C52.9211 100.422 52.8404 100.326 52.7932 100.213C52.7461 100.1 52.7347 99.9758 52.7607 99.8562C52.7867 99.7367 52.8488 99.628 52.9385 99.545L52.9794 99.3824C52.974 99.3694 52.9686 99.3564 52.9632 99.3434C52.8402 99.0525 52.634 98.8046 52.3707 98.6306C52.1074 98.4567 51.7985 98.3645 51.483 98.3657C51.1675 98.3669 50.8594 98.4613 50.5973 98.6372C50.3353 98.8131 50.131 99.0626 50.0102 99.3544C49.5272 100.519 48.9123 101.685 48.7609 102.916C48.6942 103.46 48.7223 104.012 48.844 104.547C47.7096 102.07 47.1206 99.3776 47.1168 96.6527C47.1165 95.969 47.1545 95.2857 47.2304 94.6062C47.2932 94.0492 47.3803 93.4961 47.4917 92.9469C48.0998 89.9674 49.4052 87.1748 51.3008 84.7983C52.2183 84.2972 52.9602 83.5267 53.4267 82.5905C53.5957 82.2539 53.7152 81.8947 53.7813 81.5239C53.6778 81.5375 53.3911 79.9597 53.4692 79.8629C53.3249 79.6438 53.0668 79.5349 52.9093 79.3211C52.1258 78.2579 51.0465 78.4436 50.483 79.8884C49.2793 80.4965 49.2676 81.505 50.0062 82.475C50.4761 83.092 50.5407 83.927 50.953 84.5877C50.9105 84.642 50.8664 84.6947 50.824 84.7491C50.0486 85.7471 49.3728 86.8188 48.8063 87.9488C48.9441 86.6828 48.7796 85.4023 48.3265 84.2124C47.8673 83.1034 47.0065 82.1695 46.2485 81.2108C45.338 80.0593 43.471 80.5618 43.3106 82.0216C43.309 82.0357 43.3075 82.0498 43.306 82.064C43.4186 82.1275 43.5288 82.195 43.6367 82.2664C43.7721 82.357 43.8771 82.4864 43.9378 82.6378C43.9985 82.7891 44.0122 82.9553 43.9769 83.1145C43.9417 83.2737 43.8592 83.4186 43.7403 83.5301C43.6214 83.6416 43.4717 83.7145 43.3106 83.7394L43.2942 83.7419C43.3343 84.1481 43.4052 84.5506 43.5062 84.9461C42.5338 88.7104 44.6332 90.0814 47.6309 90.143C47.697 90.177 47.7615 90.2109 47.8277 90.2432C47.2585 91.8578 46.9015 93.5397 46.7656 95.2465C46.6886 96.2535 46.6932 97.265 46.7791 98.2713L46.774 98.2356C46.5569 97.1167 45.9606 96.1071 45.0858 95.3773C43.7867 94.309 41.9512 93.9156 40.5496 93.057C40.4007 92.9612 40.2275 92.9101 40.0505 92.9097C39.8735 92.9093 39.7 92.9595 39.5506 93.0545C39.4012 93.1495 39.282 93.2853 39.2072 93.4459C39.1323 93.6064 39.1049 93.7851 39.1282 93.9607C39.13 93.9732 39.132 93.9857 39.1339 93.9982C39.3428 94.0834 39.5463 94.1815 39.743 94.292C39.8556 94.3556 39.9658 94.4231 40.0736 94.4945C40.2091 94.5851 40.3141 94.7145 40.3748 94.8659C40.4355 95.0172 40.4491 95.1834 40.4139 95.3426C40.3786 95.5018 40.2962 95.6466 40.1773 95.7582C40.0584 95.8697 39.9086 95.9426 39.7476 95.9675L39.7311 95.97C39.7192 95.9717 39.7091 95.9734 39.6972 95.9751C40.0542 96.8283 40.5552 97.6137 41.1784 98.2967C41.7864 101.583 44.3979 101.895 47.1914 100.938H47.1931C47.4996 102.271 47.9437 103.569 48.5182 104.81H53.252C53.269 104.757 53.2842 104.703 53.2995 104.65C52.8613 104.678 52.4214 104.652 51.9896 104.572C52.3409 104.141 52.6921 103.706 53.0433 103.275C53.0511 103.267 53.0585 103.258 53.0653 103.249C53.2435 103.028 53.4233 102.809 53.6015 102.588L53.6016 102.588C53.6111 101.911 53.5335 101.236 53.3708 100.579L53.3706 100.579Z" fill="#F2F2F2"/>
<path d="M16.96 93.4123L18.2661 94.7941L24.3308 90.2965L22.4032 88.2571L16.96 93.4123Z" fill="#A0616A"/>
<path d="M19.1003 94.1766L17.6217 92.7862L17.2586 92.4456L13.4941 95.4581L14.4734 96.4942L15.626 95.7542L15.0965 97.1535L17.6928 99.9002C17.8172 100.032 17.9804 100.12 18.1586 100.153C18.3368 100.185 18.5206 100.16 18.6833 100.08C18.846 100 18.979 99.8707 19.0629 99.71C19.1467 99.5494 19.1771 99.3661 19.1496 99.1869L18.5893 95.5583L19.5766 94.6236L19.1003 94.1766Z" fill="#2F2E41"/>
<path d="M45.6657 43.1012L45.2516 47.6264C45.2516 47.6264 44.5287 51.0358 45.0292 50.7594C45.5297 50.4831 44.6324 51.7268 44.8687 52.8054C45.105 53.8839 42.8499 61.9268 43.8713 61.0937C44.8927 60.2605 43.2811 66.0164 42.2617 68.856C41.9497 69.7338 41.629 70.6223 41.3062 71.5044C41.2425 71.683 41.1788 71.8594 41.113 72.038C40.6947 73.1857 40.2763 74.3165 39.8751 75.3835C39.8177 75.5323 39.7625 75.681 39.7073 75.8278C39.7051 75.8319 39.7051 75.8362 39.7031 75.8362C38.3822 79.3157 37.2504 82.0533 36.7982 82.5061C36.5625 82.742 32.8231 85.4457 29.054 88.1536C25.0981 90.9954 21.1102 93.8436 21.1102 93.8436L17.3857 89.9327C17.3857 89.9327 17.4749 89.9071 17.6427 89.8562C17.9527 89.7668 18.5261 89.5989 19.2778 89.3758C22.4119 88.4511 18.4305 87.0122 21.2759 85.9834C22.0786 85.6944 22.6137 85.4691 22.7347 85.35C23.4418 84.6592 24.391 83.012 24.839 83.7028C25.287 84.3936 27.3192 79.2605 27.9053 78.7524C28.2195 78.4783 29.2452 77.1966 30.1243 76.07C30.8801 75.1008 31.5299 74.2442 31.5299 74.2442C31.5299 74.2442 31.5427 73.7851 31.5618 73.0539C31.5894 71.9721 31.6298 70.2908 31.6723 68.6074C31.6701 68.6052 31.6701 68.6052 31.6723 68.6052C31.6871 67.9718 31.7019 67.3384 31.7169 66.7369C31.7274 66.2714 31.738 65.8229 31.7487 65.4084C31.7763 64.1671 31.7954 63.2277 31.7954 62.9938C31.7954 62.2266 31.7954 62.8239 32.4006 62.3605C32.4909 62.2894 32.5768 62.2127 32.6575 62.1309C32.7869 62.0143 32.9062 61.887 33.0143 61.7504C33.0589 61.6548 32.7807 61.7845 32.4196 61.7122C32.2242 61.6729 32.0434 61.5802 31.8973 61.4443C31.1371 60.76 31.9568 58.6558 31.9568 58.6558C30.2283 55.1954 30.3536 52.3578 31.1626 50.1706C31.7675 48.6011 32.7277 47.1933 33.9676 46.0578C34.4396 45.6077 34.9537 45.204 35.503 44.8526L35.5561 44.5657L36.14 41.4008C36.4505 41.23 36.7735 41.083 37.1061 40.9608C38.1433 40.5883 39.2562 40.4774 40.3464 40.6378C41.4299 40.7947 42.479 41.1347 43.4488 41.6431C44.2416 42.0418 44.9855 42.5311 45.6657 43.1012Z" fill="#031203"/>
<path d="M29.3564 100.463L31.2486 100.639L32.8431 93.2541L30.0502 92.9941L29.3564 100.463Z" fill="#A0616A"/>
<path d="M34.8064 103.357L31.9949 101L32.1224 99.644L31.4684 99.6227L29.4427 99.5568H29.4405L28.9436 99.5398L28.1006 104.288L29.5212 104.42L29.897 103.102L30.4215 104.505L31.1732 104.575L34.1821 104.856C34.2076 104.858 34.2352 104.86 34.2607 104.86C34.3803 104.86 34.4986 104.835 34.6077 104.786C34.7168 104.737 34.8142 104.665 34.8935 104.575C35.0167 104.44 35.092 104.268 35.1079 104.086C35.1204 103.949 35.0994 103.812 35.0469 103.685C34.9944 103.558 34.9119 103.445 34.8064 103.357Z" fill="#2F2E41"/>
<path d="M39.8749 75.3834C39.155 79.3051 36.1079 88.5 34.2648 93.8819C33.426 96.341 32.84 98.0053 32.84 98.0053L31.8844 97.7035H31.8823L30.2664 97.1933L29.6782 97.0063H29.676L28.9625 96.7789C28.9625 96.7789 29.0454 92.3876 29.0539 88.1536C29.0602 86.3787 29.0517 84.6294 29.0178 83.2436C28.9795 81.7324 28.9137 80.6505 28.8055 80.4358C28.3573 79.5558 29.107 79.4623 29.899 79.2412C30.6931 79.0181 30.0731 78.6822 29.7652 77.9681C29.5572 77.4919 29.9669 76.8565 30.2579 76.4951C30.3381 76.3934 30.4239 76.2962 30.5148 76.2039C30.5148 76.2039 30.3746 76.155 30.1241 76.07C30.88 75.1007 31.5298 74.2442 31.5298 74.2442C31.5298 74.2442 31.5425 73.785 31.5616 73.0539C31.5893 71.972 31.6296 70.2907 31.6721 68.6073C31.6699 68.6051 31.6699 68.6051 31.6721 68.6051C31.6869 67.9717 31.7018 67.3383 31.7167 66.7368C32.9313 67.6699 34.1119 68.584 35.1821 69.4299C35.1834 69.4309 35.1845 69.4322 35.1852 69.4337C35.186 69.4352 35.1863 69.4368 35.1864 69.4384C37.7578 71.4725 39.6881 73.1049 39.9598 73.6236C40.083 73.8573 40.0405 74.4823 39.8749 75.3834Z" fill="#031203"/>
<path d="M103.18 6.14119C103.534 6.10806 103.887 6.21449 104.164 6.43784C104.441 6.6612 104.62 6.98385 104.662 7.33714C104.67 7.40909 104.672 7.48154 104.667 7.55375L109.046 9.42553L108.879 11.9838L103.157 8.77055C102.86 8.72918 102.584 8.59031 102.373 8.37562C102.163 8.16093 102.029 7.88249 101.993 7.58376C101.974 7.41358 101.989 7.24136 102.037 7.07693C102.085 6.91251 102.164 6.7591 102.271 6.62547C102.378 6.49183 102.51 6.38059 102.66 6.29809C102.81 6.21559 102.975 6.16344 103.145 6.14464C103.157 6.14333 103.169 6.14218 103.18 6.14119Z" fill="#FFB6B6"/>
<path d="M132.973 21.9334C132.865 21.4374 132.664 20.9664 132.38 20.5453C132.302 20.4255 132.216 20.3105 132.123 20.201C131.78 19.7908 131.459 19.4146 131.162 19.0788C130.981 18.8683 130.805 18.6728 130.639 18.4922C129.677 17.4357 129.047 16.8768 128.758 16.83C128.618 16.8066 128.48 16.7896 128.346 16.7726C127.66 16.6876 127.163 16.6259 127.148 15.9011C127.147 15.7972 127.154 15.6934 127.169 15.5908C127.195 15.4183 127.233 15.2479 127.282 15.0807C127.31 14.9859 127.332 14.8893 127.348 14.7916C127.369 14.6662 127.361 14.5726 127.293 14.5152C127.208 14.4452 127.066 14.4558 126.798 14.562C126.755 14.5791 126.707 14.5982 126.656 14.6215C126.639 14.6279 126.622 14.6365 126.603 14.645C126.569 14.6598 126.53 14.6768 126.492 14.6959C126.172 14.849 125.677 14.8681 125.112 14.8107C123.445 14.6407 121.19 13.799 121.162 13.7883L106.961 8.26416L106.829 8.47671L106.517 8.98256L106.409 9.15681L106.286 9.3566L105.748 10.2238L105.477 10.6617L110.063 14.1242L110.562 14.5004L110.991 14.8256L119.748 21.4381L123.014 23.5955L123.742 24.0758L126.847 26.1248C127.293 26.4199 127.794 26.6226 128.32 26.7208C128.845 26.819 129.385 26.8108 129.908 26.6967C130.43 26.5826 130.925 26.3649 131.362 26.0564C131.799 25.7479 132.17 25.3549 132.453 24.9006C133.004 24.0164 133.19 22.9525 132.973 21.9334Z" fill="#E6E6E6"/>
<path d="M153.304 105H0.261172C0.204855 105 0.150844 104.978 0.111022 104.938C0.0711998 104.898 0.0488281 104.844 0.0488281 104.788C0.0488281 104.731 0.0711998 104.677 0.111022 104.637C0.150844 104.597 0.204855 104.575 0.261172 104.575H153.304C153.36 104.575 153.414 104.597 153.454 104.637C153.494 104.677 153.516 104.731 153.516 104.788C153.516 104.844 153.494 104.898 153.454 104.938C153.414 104.978 153.36 105 153.304 105Z" fill="#E6E6E6"/>
<path d="M35.0674 35.4517L35.4653 39.1462L35.2313 43.9907L45.9515 42.716L46.9586 35.4517L45.6752 35.4644L35.0674 35.4517Z" fill="#FFB6B6"/>
<path d="M44.186 23.5186L40.1514 20.3303L38.0336 20.207L34.891 22.2222L34.1216 26.1517L32.3017 30.5766L34.9709 42.5182C34.9709 42.5182 35.2213 43.3751 34.5652 43.478C33.9092 43.5809 33.9879 44.844 33.9879 44.844C33.9879 44.844 34.1215 45.9387 33.4844 46.0351C32.8474 46.1315 31.1487 46.1315 32.6352 48.0445C34.1216 49.9575 45.8781 42.7223 45.8781 42.7223L47.5857 33.7539C47.5857 33.7539 50.8972 29.3017 47.3309 26.7519L44.186 23.5186Z" fill="#E6E6E6"/>
<path d="M26.5736 50.6316C26.3958 50.4096 26.2689 50.1512 26.2016 49.8747C26.1344 49.5982 26.1286 49.3103 26.1845 49.0314C26.2405 48.7524 26.3568 48.489 26.5254 48.2599C26.6941 48.0308 26.9108 47.8415 27.1604 47.7054L32.2352 30.6577L35.4084 32.2569L29.8819 48.5969C30.0826 49.0318 30.117 49.5253 29.9786 49.9839C29.8401 50.4425 29.5384 50.8343 29.1306 51.0851C28.7228 51.3359 28.2373 51.4283 27.766 51.3447C27.2948 51.2611 26.8705 51.0074 26.5736 50.6316Z" fill="#A0616A"/>
<path d="M35.6195 22.0643C35.6195 22.0643 34.7124 21.5818 34.092 23.6699C33.5953 25.3417 29.5647 35.2993 29.5133 37.7202C29.1816 37.7906 28.8827 37.9694 28.6637 38.2285C28.4447 38.4876 28.3181 38.8123 28.3037 39.1514L33.2872 39.8199C34.158 39.0847 34.3864 38.0917 34.0495 37.797L35.1315 34.8389L39.6456 25.4273L36.2814 22.4015L35.6195 22.0643Z" fill="#E6E6E6"/>
<path d="M62.248 45.028C62.3124 44.7508 62.3152 44.4629 62.2564 44.1845C62.1976 43.9061 62.0785 43.644 61.9075 43.4167C61.7365 43.1893 61.5178 43.0023 61.2668 42.8687C61.0158 42.7351 60.7386 42.6583 60.4547 42.6435L48.8132 29.335L46.3438 32.2845L58.386 44.6254C58.3929 45.1044 58.5751 45.5643 58.898 45.9178C59.221 46.2714 59.6623 46.4941 60.1384 46.5437C60.6144 46.5934 61.0921 46.4665 61.4809 46.1871C61.8697 45.9078 62.1427 45.4953 62.248 45.028H62.248Z" fill="#A0616A"/>
<path d="M41.7496 23.1863C41.7496 23.1863 42.359 22.3586 43.8206 23.9728C44.9907 25.2651 52.9268 32.4988 54.019 34.6594C54.3485 34.5793 54.6952 34.6111 55.0046 34.75C55.314 34.8888 55.5685 35.1268 55.7279 35.4263L51.5233 38.1862C50.4205 37.9003 49.7856 37.1038 49.962 36.6923L47.7085 34.4934L39.5723 27.9613L41.2984 23.7768L41.7496 23.1863Z" fill="#E6E6E6"/>
<path d="M85.1617 59.7263C101.58 59.7263 114.89 46.4036 114.89 29.9691C114.89 13.5347 101.58 0.211914 85.1617 0.211914C68.7433 0.211914 55.4336 13.5347 55.4336 29.9691C55.4336 46.4036 68.7433 59.7263 85.1617 59.7263Z" fill="#FBFBFB"/>
<path opacity="0.2" d="M83.7561 40.5011C82.3942 41.8643 80.5471 42.6302 78.6212 42.6302C76.6952 42.6302 74.8481 41.8643 73.4862 40.5011V40.5011C72.3159 39.3292 71.5806 37.7923 71.4022 36.145C71.2237 34.4976 71.6127 32.8387 72.5049 31.4429L70.9072 33.0744C69.5454 34.4376 68.7803 36.2865 68.7803 38.2144C68.7803 40.1423 69.5454 41.9912 70.9072 43.3544V43.3544C72.2691 44.7176 74.1162 45.4834 76.0422 45.4834C77.9682 45.4834 79.8152 44.7176 81.1771 43.3544L84.7176 39.6746L84.7714 39.4458L83.7561 40.5011Z" fill="black"/>
<path opacity="0.2" d="M87.1286 17.7673C88.7205 16.6821 90.6778 16.2743 92.57 16.6336C94.4622 16.9929 96.1344 18.09 97.2185 19.6833C98.1501 21.0531 98.5864 22.7002 98.455 24.352C98.3236 26.0038 97.6324 27.5611 96.496 28.766L98.3695 27.4611C99.9613 26.3758 101.057 24.702 101.416 22.808C101.775 20.9139 101.368 18.9546 100.284 17.3612C99.1994 15.7679 97.5273 14.6708 95.6351 14.3115C93.7429 13.9522 91.7856 14.36 90.1937 15.4452L86.0301 18.4L85.9346 18.6147L87.1286 17.7673Z" fill="black"/>
<path d="M76.0416 46.3931C74.4793 46.3931 72.9521 45.9294 71.6531 45.0606C70.3541 44.1918 69.3417 42.957 68.7439 41.5122C68.146 40.0674 67.9896 38.4777 68.2944 36.9439C68.5992 35.4102 69.3515 34.0013 70.4562 32.8956L77.1595 26.0498C77.8928 25.3146 78.7636 24.7313 79.7222 24.3332C80.6808 23.935 81.7083 23.7299 82.7462 23.7295C83.784 23.7291 84.8118 23.9334 85.7707 24.3308C86.7296 24.7281 87.6009 25.3108 88.3347 26.0453C88.4542 26.1649 88.5213 26.3271 88.5213 26.4962C88.5213 26.6653 88.4542 26.8275 88.3347 26.947C88.2153 27.0666 88.0532 27.1338 87.8843 27.1338C87.7154 27.1338 87.5534 27.0666 87.4339 26.947C86.1915 25.7034 84.5064 25.0048 82.7494 25.0048C80.9924 25.0048 79.3073 25.7034 78.0649 26.947C77.0803 30.4215 74.953 32.8054 71.3616 33.7928C70.7454 34.4081 70.2563 35.139 69.9224 35.9436C69.5885 36.7482 69.4163 37.6107 69.4155 38.482C69.4148 39.3533 69.5856 40.2161 69.9181 41.0213C70.2507 41.8264 70.7385 42.5581 71.3537 43.1745C71.9688 43.7908 72.6993 44.2798 73.5034 44.6135C74.3074 44.9471 75.1693 45.1189 76.0397 45.119C76.9101 45.1191 77.772 44.9476 78.5761 44.6141C79.3802 44.2806 80.1108 43.7918 80.7262 43.1756C80.581 41.7502 80.9971 40.4103 84.2582 39.5043C84.3162 39.4437 84.3855 39.3952 84.4623 39.3615C84.539 39.3278 84.6216 39.3095 84.7054 39.3079C84.7892 39.3062 84.8725 39.321 84.9505 39.3516C85.0286 39.3822 85.0998 39.4279 85.1601 39.4861C85.2205 39.5443 85.2688 39.6138 85.3022 39.6907C85.3357 39.7676 85.3537 39.8504 85.3551 39.9343C85.3566 40.0181 85.3415 40.1015 85.3107 40.1795C85.2799 40.2575 85.2341 40.3287 85.1758 40.3889L81.6353 44.0687C80.903 44.8075 80.0315 45.3934 79.0713 45.7924C78.1111 46.1914 77.0813 46.3956 76.0416 46.3931Z" fill="#031203"/>
<path d="M86.9243 36.7085C85.8866 36.7113 84.8586 36.508 83.8998 36.1105C82.9411 35.713 82.0707 35.129 81.3389 34.3925C81.2194 34.2729 81.1523 34.1107 81.1523 33.9416C81.1524 33.7725 81.2195 33.6103 81.339 33.4907C81.4585 33.3711 81.6205 33.304 81.7895 33.304C81.9584 33.304 82.1204 33.3712 82.2399 33.4908C82.855 34.1066 83.5854 34.5951 84.3891 34.9283C85.1929 35.2616 86.0543 35.4331 86.9243 35.4331C87.7943 35.4331 88.6558 35.2616 89.4595 34.9284C90.2633 34.5951 90.9936 34.1066 91.6088 33.4908C92.4577 28.3716 95.919 27.6492 98.9276 26.1651C99.5428 25.5493 100.031 24.8182 100.364 24.0137C100.697 23.2091 100.868 22.3468 100.868 21.4759C100.868 20.6051 100.697 19.7427 100.364 18.9382C100.031 18.1336 99.5427 17.4026 98.9275 16.7868C98.3123 16.171 97.582 15.6826 96.7782 15.3493C95.9745 15.016 95.113 14.8445 94.243 14.8445C93.373 14.8445 92.5115 15.0161 91.7077 15.3493C90.9039 15.6826 90.1736 16.1711 89.5584 16.7869C88.7215 19.2038 87.8998 21.6493 85.4072 20.9422C85.348 21.0014 85.2778 21.0484 85.2005 21.0804C85.1232 21.1125 85.0404 21.1289 84.9567 21.129C84.7878 21.129 84.6258 21.0618 84.5063 20.9422C84.3869 20.8226 84.3197 20.6605 84.3197 20.4914C84.3197 20.3222 84.3868 20.1601 84.5063 20.0405L88.6576 15.8852C89.3911 15.151 90.2618 14.5686 91.2202 14.1712C92.1785 13.7739 93.2056 13.5693 94.2429 13.5693C95.2802 13.5693 96.3073 13.7738 97.2657 14.1712C98.224 14.5685 99.0948 15.1509 99.8283 15.8851C100.562 16.6193 101.144 17.4909 101.541 18.4502C101.938 19.4095 102.142 20.4376 102.142 21.4759C102.142 22.5142 101.938 23.5424 101.541 24.5016C101.144 25.4609 100.562 26.3325 99.8283 27.0667L92.5096 34.3926C91.7779 35.1291 90.9074 35.713 89.9487 36.1105C88.99 36.5081 87.962 36.7113 86.9243 36.7085Z" fill="#031203"/>
<path d="M110.991 14.8255C109.742 12.703 108.24 10.7408 106.516 8.9824C106.132 8.59133 105.735 8.20868 105.33 7.83671C105.104 7.6306 104.877 7.42863 104.646 7.23092C104.206 6.85262 103.754 6.48699 103.293 6.13423C98.0878 2.14868 91.7147 -0.00739599 85.1611 1.90622e-05C68.6535 1.90622e-05 55.2207 13.4439 55.2207 29.9698C55.2199 31.792 55.3855 33.6105 55.7154 35.4025C55.7159 35.4125 55.7174 35.4225 55.7197 35.4323C55.8705 36.2549 56.0573 37.0668 56.2739 37.8639C57.8082 43.4898 60.9491 48.5455 65.3116 52.4109C69.6741 56.2764 75.0685 58.7838 80.8336 59.6257C86.5987 60.4675 92.484 59.6073 97.7679 57.1505C103.052 54.6936 107.505 50.7469 110.581 45.7942C110.995 45.1267 111.384 44.4423 111.749 43.7409C114.074 39.2498 115.224 34.242 115.091 29.1854C114.959 24.1288 113.548 19.1883 110.991 14.8255ZM85.1611 59.5144C81.2847 59.5158 77.446 58.7525 73.8644 57.2682C70.2828 55.7839 67.0284 53.6077 64.2874 50.864C61.5463 48.1202 59.3723 44.8627 57.8894 41.2776C56.4066 37.6925 55.6441 33.85 55.6454 29.9698C55.6454 13.6776 68.8871 0.425122 85.1611 0.425122C89.0994 0.427357 92.9974 1.21875 96.6253 2.75266C100.253 4.28656 103.538 6.53194 106.285 9.35643C107.002 10.0886 107.678 10.8592 108.311 11.6648C108.938 12.4532 109.522 13.274 110.063 14.124C112.315 17.6662 113.787 21.6485 114.38 25.8053C114.974 29.9621 114.674 34.1977 113.503 38.2295C113.241 39.1307 112.936 40.0128 112.592 40.8779C112.246 41.7451 111.861 42.5953 111.436 43.42C108.953 48.2571 105.188 52.3172 100.554 55.1558C95.9194 57.9945 90.5943 59.5024 85.1611 59.5144Z" fill="#3F3D56"/>
<path d="M125.891 100.53L123.939 100.514L123.075 92.8025L125.956 92.8269L125.891 100.53Z" fill="#FFB6B6"/>
<path d="M126.409 99.6292L125.9 99.5952L123.821 99.4528L123.152 99.4082L123.139 100.805L120.022 102.922C119.868 103.026 119.752 103.178 119.69 103.353C119.627 103.529 119.623 103.72 119.677 103.898C119.731 104.076 119.841 104.233 119.99 104.344C120.139 104.456 120.32 104.517 120.506 104.518L124.386 104.55L125.065 103.172L125.314 104.558L126.779 104.571L126.409 99.6292Z" fill="#2F2E41"/>
<path d="M146.44 99.1027L144.575 99.6768L141.426 92.5865L144.179 91.7393L146.44 99.1027Z" fill="#FFB6B6"/>
<path d="M146.662 98.0881L146.165 98.2094L144.142 98.7004L143.49 98.8598L143.899 100.197L141.566 103.155C141.464 103.284 141.401 103.439 141.384 103.602C141.366 103.766 141.395 103.93 141.467 104.078C141.538 104.226 141.65 104.35 141.788 104.437C141.927 104.524 142.088 104.571 142.252 104.571C142.338 104.571 142.424 104.558 142.507 104.533L146.216 103.391L146.448 101.872L147.104 103.117L148.503 102.686L146.662 98.0881Z" fill="#2F2E41"/>
<path d="M121.965 35.6909L118.241 46.5255L118.118 47.3925C117.179 48.2844 118.358 48.5783 117.916 48.8135C117.474 49.0487 117.177 49.7081 117.773 49.8259C118.368 49.9437 120.289 92.2029 122.822 93.8437C125.356 95.4846 126.897 96.6714 126.432 94.2688C126.245 93.3008 126.51 88.1108 126.893 82.258C126.937 81.5947 127.623 80.8926 127.028 80.2477C126.432 79.6028 127.101 79.1784 127.139 78.6432C127.673 71.0005 128.29 63.4552 128.29 63.4552C128.29 63.4552 132.238 77.0281 133.264 75.9774C134.289 74.9267 133.883 77.5136 134.196 78.2866C134.458 78.9327 133.341 80.2015 134.983 80.221C136.625 80.2405 140.48 93.4336 140.871 93.4186C141.646 93.3891 143.825 93.4726 145.118 93.2061C145.757 93.0745 142.922 83.0859 140.554 74.4606C140.365 73.7727 139.337 73.7567 139.998 72.4287C140.659 71.1007 137.371 62.5081 137.653 62.1107C138.402 61.0558 138.687 60.5973 137.948 60.5283C137.21 60.4592 136.991 60.8648 136.951 59.8416C136.912 58.8183 136.784 56.2951 136.784 56.2951C136.784 56.2951 136.249 46.3161 132.502 40.8028L132.182 37.527L121.965 35.6909Z" fill="#031203"/>
<path d="M131.271 15.0049L126.332 15.7089L126.034 19.2889L123.596 23.1053C123.596 23.1053 118.179 26.9216 121.957 32.9503C120.519 38.1436 119.09 43.1241 117.727 46.4446C116.665 53.0337 126.176 53.6652 137.05 51.3333C137.05 51.3333 136.9 48.5159 135.913 47.1614C134.927 45.807 135.464 45.5112 135.464 45.5112L134.774 42.9808C135.164 39.3231 133.847 38.9948 133.228 37.3049L135.108 19.7706L131.271 15.0049Z" fill="#E6E6E6"/>
<path d="M107.559 45.6532C107.612 45.3012 107.799 44.9835 108.082 44.7678C108.365 44.5521 108.72 44.4553 109.073 44.498C109.145 44.5079 109.216 44.5236 109.285 44.5451L112.146 40.7354L114.588 41.5084L110.105 46.3031C109.993 46.5827 109.793 46.8175 109.534 46.971C109.276 47.1244 108.974 47.1879 108.675 47.1515C108.506 47.1291 108.342 47.0736 108.194 46.9879C108.046 46.9023 107.916 46.7884 107.812 46.6525C107.708 46.5167 107.632 46.3616 107.587 46.1962C107.543 46.0309 107.532 45.8584 107.554 45.6886C107.556 45.6768 107.557 45.665 107.559 45.6532Z" fill="#FFB6B6"/>
<path d="M132.973 21.9334C132.902 21.8462 132.826 21.7612 132.745 21.6783C132.185 21.0997 131.462 20.7041 130.673 20.5433C129.884 20.3825 129.064 20.464 128.322 20.7771C128.25 20.8068 128.178 20.8409 128.108 20.8749C125.57 22.1225 124.201 22.9536 124.035 23.3426C123.978 23.4744 123.929 23.604 123.88 23.7294C123.833 23.8527 123.789 23.9696 123.742 24.0758C123.547 24.5307 123.322 24.8134 122.748 24.6859C122.558 24.6393 122.375 24.5687 122.203 24.4755C122.124 24.4372 122.052 24.3968 121.984 24.3586C121.738 24.2226 121.559 24.1248 121.438 24.2141C121.321 24.3012 121.317 24.5222 121.423 25.0345C121.458 25.2483 121.453 25.4668 121.406 25.6785C121.266 26.2959 121.046 26.8925 120.752 27.4533C120.312 28.3324 119.817 29.1829 119.27 29.9997L114.218 37.2094L113.877 37.6961L113.503 38.2297L110.521 42.485L110.698 42.6656L111.437 43.4202L111.6 43.5881L111.749 43.7411L112.133 44.1343L112.494 44.502L120.548 37.9342L121.447 37.2009L123.056 35.8874L126.354 33.1986L132.595 27.4172C132.989 27.0552 133.305 26.6172 133.526 26.1296C133.747 25.642 133.867 25.1148 133.879 24.5796C133.879 24.5435 133.881 24.5095 133.881 24.4733C133.884 23.5465 133.562 22.648 132.973 21.9334Z" fill="#E6E6E6"/>
<path d="M128.305 14.8744C131.353 14.8744 133.825 12.401 133.825 9.3498C133.825 6.29864 131.353 3.8252 128.305 3.8252C125.257 3.8252 122.786 6.29864 122.786 9.3498C122.786 12.401 125.257 14.8744 128.305 14.8744Z" fill="#FFB6B6"/>
<path d="M135.619 17.0105C136.36 18.0717 136.855 19.2846 137.069 20.5612C136.473 20.9435 135.778 21.1443 135.069 21.1392C135.045 21.0463 135.021 20.9534 134.993 20.8605C134.788 20.1412 134.483 19.4544 134.086 18.8203C134.14 19.504 134.048 20.1915 133.814 20.8365C133.44 20.6661 133.039 20.5625 132.629 20.5302C132.295 20.5302 131.965 20.608 131.666 20.7573C131.319 19.6047 130.999 18.545 130.773 17.7847C130.766 19.6907 127.975 21.3525 124.929 21.1117C124.819 21.0429 125.923 17.9085 125.816 17.8363C125.572 17.6746 125.335 17.4991 125.098 17.3271C126.094 15.7857 127.177 14.1342 126.992 13.8865C127.005 14.1927 125.912 15.6653 124.723 17.0553C124.063 16.5701 127.813 8.67746 125.96 8.03752C125.929 8.31621 125.52 8.31621 125.022 8.25773C124.891 7.7979 124.695 7.35892 124.441 6.95372C124.474 7.36188 124.425 7.77253 124.297 8.16137C123.805 8.16151 123.314 8.2134 122.833 8.3162C122.721 8.1408 122.598 7.97298 122.465 7.81387C122.478 8.00779 122.472 8.20253 122.448 8.39533C121.956 8.50198 121.55 8.62584 121.492 8.72563C121.107 8.58456 121.764 7.94806 121.523 7.61775C120.911 6.79203 121.819 5.58783 122.393 4.73455C123.572 2.98675 126.16 2.38121 127.992 3.43058C128.074 3.145 128.497 2.95578 129.04 2.82848C129.27 2.7777 129.506 2.75574 129.741 2.76311C132.079 2.80439 135.323 4.73455 135.451 7.07071C135.461 7.30467 135.478 7.55927 135.495 7.83107C135.66 10.4459 135.457 12.8578 137.241 14.7707C137.888 15.4623 137.894 18.7377 137.647 20.4236C137.004 19.7458 136.547 17.1103 135.619 17.0105Z" fill="#031203"/>
<path d="M74.8333 30.7157C75.1851 30.7157 75.4704 30.4303 75.4704 30.0781C75.4704 29.7259 75.1851 29.4404 74.8333 29.4404C74.4815 29.4404 74.1963 29.7259 74.1963 30.0781C74.1963 30.4303 74.4815 30.7157 74.8333 30.7157Z" fill="#031203"/>
<path d="M95.0052 30.2904C95.357 30.2904 95.6422 30.005 95.6422 29.6528C95.6422 29.3006 95.357 29.0151 95.0052 29.0151C94.6534 29.0151 94.3682 29.3006 94.3682 29.6528C94.3682 30.005 94.6534 30.2904 95.0052 30.2904Z" fill="#031203"/>
<path d="M34.3669 11.6472C33.8821 12.8558 32.5144 15.2325 32.3291 16.5291L32.4125 16.447C32.5715 16.719 32.7523 16.9776 32.953 17.2205C33.3126 16.8424 33.747 16.5434 34.2285 16.3426C33.9656 16.8826 33.8133 17.4698 33.7807 18.0695C34.2968 19.6891 36.683 18.9679 38.081 18.791C39.4772 20.3896 41.3346 20.8067 43.767 19.8877C44.4473 19.9578 45.2088 20.0003 45.6855 19.598C46.1622 19.1956 45.8783 18.4505 46.1348 17.8869C47.9616 13.8724 46.2757 12.424 44.8432 10.6037C44.528 10.2031 44.5293 9.60536 44.1458 9.22316C43.6136 8.69339 42.7977 8.53044 42.0456 8.39991C42.241 8.41021 42.4357 8.37 42.6111 8.28313C42.7865 8.19627 42.9365 8.06568 43.0469 7.90394C43.1436 7.74099 43.1936 7.55444 43.1912 7.36488C43.1888 7.17531 43.1341 6.9901 43.0332 6.82966C42.7642 6.38325 42.2052 6.12366 41.666 6.05882C41.1347 6.0227 40.601 6.06862 40.0836 6.19497C39.7485 6.23909 39.424 6.34291 39.1254 6.50153C38.9846 6.57676 38.87 6.69325 38.7971 6.83541C38.7241 6.97757 38.6962 7.13863 38.7172 7.29706C38.7621 7.44337 38.8395 7.57764 38.9435 7.68985C39.0475 7.80206 39.1755 7.88931 39.3179 7.94511C39.535 8.037 39.7633 8.09957 39.9969 8.13119C38.924 7.99182 37.8341 8.18278 36.8722 8.67866C35.6668 9.32229 34.8533 10.4392 34.3669 11.6472Z" fill="#031203"/>
<path d="M40.894 18.4229C43.2738 18.4229 45.203 16.4918 45.203 14.1096C45.203 11.7275 43.2738 9.79639 40.894 9.79639C38.5142 9.79639 36.585 11.7275 36.585 14.1096C36.585 16.4918 38.5142 18.4229 40.894 18.4229Z" fill="#A0616A"/>
<path d="M36.7477 11.797C36.9975 12.5528 37.7115 12.7963 38.3714 12.9482C38.5795 12.9968 38.7888 13.042 39.0001 13.0823C39.0781 12.9847 39.161 12.8891 39.2476 12.7987C39.6073 12.4206 40.0416 12.1217 40.5231 11.9208C40.3149 12.3474 40.1765 12.8046 40.1133 13.2751C40.5122 13.333 40.9134 13.3804 41.3167 13.4171C41.658 13.4898 42.0142 13.4285 42.3116 13.2459C42.609 13.0632 42.8249 12.7732 42.9147 12.4357C43.2819 13.0368 43.7161 13.6028 44.3099 13.8416C44.6494 13.9637 45.0191 13.9737 45.3647 13.8702C45.7104 13.7667 46.0138 13.5551 46.2306 13.2664C46.5729 12.7955 46.8103 12.2564 46.9267 11.6858C47.0952 11.0164 47.1888 10.2454 46.8579 9.82073C46.5929 9.47703 46.1357 9.47087 45.7138 9.50136C44.7827 9.57285 43.8615 9.74004 42.9646 10.0003L42.8887 10.1712C43.0428 9.24426 42.7085 8.35246 42.0899 8.03531C41.6726 7.82325 41.1706 7.85881 40.6828 7.90182C40.0563 7.9298 39.4373 8.04964 38.8455 8.2575C38.1666 8.51889 37.585 8.98386 37.1803 9.58879C36.7473 10.2468 36.5321 11.1442 36.7477 11.797Z" fill="#031203"/>
<path d="M42.8899 7.76535C42.8474 7.75279 42.9576 7.76893 42.9194 7.76996C42.9383 7.76886 42.9572 7.76621 42.9758 7.76205C42.9789 7.76141 43.0218 7.74772 42.9933 7.7578C43.0573 7.73864 43.1144 7.70135 43.1577 7.65042C43.2589 7.52513 43.3383 7.38366 43.3926 7.23196C43.4611 7.03149 43.5711 6.84778 43.7156 6.69289C43.7565 6.65167 43.8067 6.62072 43.8618 6.60254C43.917 6.58435 43.9757 6.57944 44.0332 6.58822C44.0906 6.59699 44.1451 6.6192 44.1924 6.65304C44.2396 6.68688 44.2782 6.73139 44.3051 6.78297C44.3596 6.98193 44.3409 7.19388 44.2525 7.38023C44.1907 7.56986 44.0988 7.74827 43.9803 7.90859C43.7817 8.17075 43.5111 8.36941 43.2017 8.48036C42.8435 8.61058 42.4529 8.62175 42.0879 8.51222C42.0397 8.4922 41.9983 8.45856 41.9688 8.41542C41.9394 8.37227 41.9231 8.32149 41.9219 8.26924C41.9208 8.21699 41.9349 8.16553 41.9624 8.12115C41.99 8.07676 42.0298 8.04135 42.0772 8.01924L42.6859 7.7698C42.718 7.75569 42.7525 7.74803 42.7875 7.74727C42.8225 7.7465 42.8573 7.75265 42.8899 7.76535C42.9226 7.77805 42.9524 7.79706 42.9777 7.82129C43.003 7.84553 43.0232 7.87451 43.0373 7.90659C43.0514 7.93867 43.0591 7.97321 43.0599 8.00825C43.0606 8.04328 43.0545 8.07813 43.0418 8.11079C43.0291 8.14345 43.0101 8.1733 42.9859 8.19861C42.9617 8.22393 42.9327 8.24422 42.9007 8.25833L42.2919 8.50777L42.2812 8.01479C42.3571 8.03674 42.4353 8.05011 42.5142 8.05467C42.5984 8.06312 42.6834 8.05953 42.7666 8.04402C42.8463 8.03356 42.9246 8.01444 43.0001 7.98701C43.0485 7.96932 43.096 7.94918 43.1424 7.92667C43.1592 7.91849 43.1759 7.91 43.1924 7.90119C43.1912 7.90182 43.2621 7.86053 43.231 7.87993C43.3097 7.82956 43.3836 7.77196 43.4517 7.70787C43.4757 7.68514 43.4978 7.66049 43.5178 7.63415C43.5525 7.5915 43.5847 7.54686 43.6141 7.50046C43.6741 7.40219 43.7216 7.29682 43.7556 7.1868C43.771 7.14055 43.7841 7.09353 43.7947 7.04593C43.7976 7.0198 43.8024 6.99391 43.8088 6.96842C43.8314 6.9077 43.8045 7.00388 43.8305 7.03019L43.9427 7.11297C43.9638 7.11925 43.986 7.12071 44.0077 7.11723C44.0295 7.11375 44.0501 7.10542 44.0682 7.09287C44.0815 7.07414 44.0786 7.07725 44.0594 7.10219C44.0372 7.13154 44.0169 7.16227 43.9985 7.1942C43.9583 7.26937 43.9219 7.34654 43.8895 7.4254C43.8225 7.59312 43.7379 7.75321 43.6369 7.90293C43.538 8.05437 43.3939 8.17069 43.225 8.23531C43.0562 8.29992 42.8713 8.30955 42.6967 8.2628C42.6311 8.23668 42.5785 8.18583 42.5501 8.1212C42.5217 8.05658 42.5198 7.98336 42.5448 7.91736C42.5716 7.85231 42.6225 7.80015 42.6868 7.77182C42.7511 7.74348 42.8239 7.74117 42.8899 7.76535Z" fill="#2F2E41"/>
</g>
<defs>
<clipPath id="clip0_166_2035">
<rect width="153.467" height="105" fill="white" transform="translate(0.0488281)"/>
</clipPath>
</defs>
</svg>
