<svg width="249" height="149" viewBox="0 0 249 149" fill="none" xmlns="http://www.w3.org/2000/svg">
<g clip-path="url(#clip0_166_2147)">
<path d="M190.64 147.315C187.452 144.619 185.516 140.36 186.024 136.213C186.532 132.067 189.677 128.256 193.757 127.375C197.837 126.495 202.487 128.932 203.726 132.921C204.408 125.23 205.194 117.218 209.279 110.669C212.978 104.738 219.385 100.495 226.328 99.7361C233.272 98.977 240.582 101.844 244.912 107.329C249.243 112.814 250.303 120.789 247.27 127.086C245.036 131.725 240.92 135.178 236.607 137.987C222.671 146.986 205.957 150.646 189.539 148.293L190.64 147.315Z" fill="#F2F2F2"/>
<path d="M238.046 102.003C232.317 106.674 227.061 111.898 222.355 117.599C214.989 126.491 209.028 136.46 204.681 147.16C204.363 147.941 205.629 148.28 205.944 147.509C213.057 130.119 224.413 114.792 238.972 102.93C239.626 102.397 238.695 101.475 238.046 102.003Z" fill="white"/>
<path d="M80.1571 146.582C84.5357 142.879 87.1953 137.029 86.4978 131.334C85.8003 125.64 81.4804 120.404 75.8768 119.195C70.2731 117.986 63.8854 121.333 62.1834 126.812C61.2467 116.249 60.1673 105.244 54.5565 96.2484C49.4759 88.1034 40.6764 82.2753 31.1397 81.2327C21.6029 80.1901 11.562 84.128 5.61425 91.6619C-0.333459 99.1959 -1.78973 110.149 2.37589 118.798C5.44456 125.17 11.0981 129.912 17.0217 133.77C35.9198 146.078 59.3629 151.211 81.6693 147.925" fill="#F2F2F2"/>
<path d="M15.0445 84.3464C22.9135 90.7615 30.1324 97.9363 36.597 105.767C43.0625 113.59 48.7547 122.022 53.5937 130.944C56.2984 135.95 58.7282 141.099 60.872 146.369C61.3092 147.441 59.5698 147.908 59.1375 146.848C55.3402 137.556 50.6422 128.66 45.1108 120.285C39.6063 111.941 33.3062 104.151 26.2988 97.0249C22.3354 92.9962 18.1537 89.1886 13.7726 85.6195C12.8746 84.8876 14.1539 83.6206 15.0445 84.3464L15.0445 84.3464Z" fill="white"/>
<path d="M178.736 148.674H74.2705V41.3938C74.2705 18.5691 92.8231 0 115.627 0H137.379C160.183 0 178.736 18.5691 178.736 41.3938V148.674Z" fill="#F2F2F2"/>
<path d="M156.984 148.674H74.2706V41.3936C74.2478 32.6478 77.0148 24.1229 82.1687 17.0603C82.3587 16.8011 82.5482 16.5453 82.7437 16.2923C85.2366 13.0197 88.2032 10.1377 91.5457 7.74119C91.7345 7.60369 91.9241 7.46858 92.1164 7.33346C94.9133 5.39624 97.9388 3.81259 101.124 2.61858C101.313 2.54682 101.506 2.47493 101.698 2.40597C104.579 1.37702 107.565 0.672191 110.602 0.304504C110.79 0.278765 110.983 0.258624 111.177 0.238483C114.136 -0.0781923 117.12 -0.0781923 120.079 0.238483C120.272 0.258624 120.465 0.278762 120.656 0.304779C123.691 0.672491 126.677 1.37723 129.557 2.40598C129.749 2.47494 129.942 2.54683 130.132 2.61873C133.278 3.79768 136.267 5.35769 139.035 7.26395C139.227 7.39613 139.419 7.53125 139.609 7.66637C141.482 9.00493 143.242 10.4962 144.87 12.1249C146.176 13.4312 147.393 14.8238 148.512 16.2931C148.707 16.5453 148.896 16.8011 149.086 17.0599C154.24 24.1226 157.007 32.6476 156.984 41.3936V148.674Z" fill="#005B92"/>
<path d="M150.259 100.691C152.788 100.691 154.838 98.6391 154.838 96.1078C154.838 93.5765 152.788 91.5244 150.259 91.5244C147.73 91.5244 145.68 93.5765 145.68 96.1078C145.68 98.6391 147.73 100.691 150.259 100.691Z" fill="#6C63FF"/>
<path d="M170.178 145.461H166.669L165 131.915L170.179 131.915L170.178 145.461Z" fill="#FFB8B8"/>
<path d="M164.163 144.457H170.93V148.722H159.902C159.902 148.162 160.013 147.607 160.227 147.09C160.441 146.572 160.755 146.102 161.15 145.706C161.546 145.31 162.016 144.996 162.533 144.782C163.05 144.567 163.604 144.457 164.163 144.457Z" fill="#2F2E41"/>
<path d="M187.637 145.461H184.128L182.459 131.915L187.638 131.915L187.637 145.461Z" fill="#FFB8B8"/>
<path d="M181.622 144.457H188.389V148.722H177.361C177.361 148.162 177.472 147.607 177.686 147.09C177.9 146.572 178.214 146.102 178.609 145.706C179.005 145.31 179.475 144.996 179.992 144.782C180.508 144.567 181.063 144.457 181.622 144.457Z" fill="#2F2E41"/>
<path d="M152.577 97.0161C152.324 96.6439 152.156 96.2208 152.085 95.7766C152.014 95.3324 152.04 94.878 152.163 94.4453C152.286 94.0126 152.503 93.6121 152.797 93.2722C153.092 92.9323 153.457 92.661 153.867 92.4777L165.795 59.5728L171.665 62.7787L158.046 94.2238C158.308 94.9344 158.3 95.7165 158.025 96.422C157.749 97.1274 157.224 97.7071 156.55 98.0513C155.876 98.3955 155.099 98.4802 154.367 98.2894C153.634 98.0987 152.997 97.6456 152.577 97.0161Z" fill="#FFB8B8"/>
<path d="M185.844 103.199C185.454 102.975 185.118 102.668 184.86 102.301C184.601 101.933 184.426 101.513 184.347 101.07C184.268 100.627 184.287 100.172 184.403 99.7372C184.518 99.3024 184.728 98.8984 185.016 98.5534L181.321 63.7456L188.001 64.051L189.536 98.2891C190.083 98.8128 190.419 99.519 190.48 100.274C190.542 101.029 190.324 101.78 189.869 102.385C189.414 102.991 188.753 103.408 188.011 103.558C187.269 103.707 186.499 103.58 185.844 103.199Z" fill="#FFB8B8"/>
<path d="M175.189 53.4779C179.071 53.4779 182.218 50.3278 182.218 46.4421C182.218 42.5563 179.071 39.4062 175.189 39.4062C171.306 39.4062 168.159 42.5563 168.159 46.4421C168.159 50.3278 171.306 53.4779 175.189 53.4779Z" fill="#FFB8B8"/>
<path d="M185.8 95.2826H164.607L164.633 95.1175C164.671 94.8708 168.41 70.356 165.652 62.3359C165.376 61.5478 165.4 60.685 165.721 59.9138C166.041 59.1425 166.636 58.5172 167.389 58.1583H167.389C171.331 56.3005 178.897 54.0128 185.283 59.5646C186.223 60.395 186.957 61.4328 187.427 62.596C187.896 63.7592 188.09 65.0159 187.991 66.2667L185.8 95.2826Z" fill="#6C63FF"/>
<path d="M168.677 73.9791L159.136 72.0417L163.608 61.4341C163.876 60.4067 164.54 59.5275 165.454 58.9893C166.368 58.4511 167.459 58.2979 168.486 58.5633C169.513 58.8287 170.393 59.491 170.933 60.405C171.473 61.319 171.629 62.4099 171.366 63.4386L168.677 73.9791Z" fill="#6C63FF"/>
<path d="M180.897 77.5763L180.324 64.4158C179.889 61.9419 181.304 59.6032 183.48 59.2209C185.657 58.84 187.782 60.5559 188.219 63.048L190.375 75.3452L180.897 77.5763Z" fill="#6C63FF"/>
<path d="M185.094 93.707C188.504 106.706 188.876 123.233 187.956 141.26L183.377 140.687L175.077 106.311L170.498 141.26L165.346 140.973C163.807 122.058 162.308 105.82 164.773 95.1393L185.094 93.707Z" fill="#2F2E41"/>
<path d="M179.82 51.8794C178.509 53.2776 176.074 52.527 175.903 50.6169C175.889 50.4686 175.89 50.3194 175.906 50.1713C175.994 49.3252 176.482 48.557 176.365 47.6637C176.339 47.4414 176.256 47.2295 176.125 47.0481C175.08 45.6475 172.627 47.6746 171.64 46.4066C171.036 45.6292 171.747 44.4051 171.283 43.5361C170.67 42.3893 168.856 42.955 167.718 42.3269C166.452 41.6281 166.528 39.6843 167.361 38.5019C168.377 37.06 170.159 36.2906 171.919 36.1797C173.678 36.0688 175.426 36.5448 177.068 37.1856C178.935 37.9136 180.785 38.9197 181.934 40.5622C183.331 42.5598 183.465 45.2453 182.767 47.5811C182.342 49.0019 180.891 50.7377 179.82 51.8794Z" fill="#2F2E41"/>
<path d="M240.408 148.858H29.1035C29.0133 148.858 28.9268 148.822 28.8631 148.758C28.7994 148.694 28.7637 148.607 28.7637 148.517C28.7637 148.427 28.7994 148.34 28.8631 148.276C28.9268 148.212 29.0133 148.176 29.1035 148.176H240.408C240.499 148.176 240.585 148.212 240.649 148.276C240.712 148.34 240.748 148.427 240.748 148.517C240.748 148.607 240.712 148.694 240.649 148.758C240.585 148.822 240.499 148.858 240.408 148.858Z" fill="#3F3D56"/>
<path d="M134.231 117.592H97.0244C96.5344 117.595 96.0634 117.403 95.7146 117.059C95.3658 116.714 95.1679 116.245 95.1641 115.755V32.6322C95.1679 32.1418 95.3658 31.6729 95.7146 31.3283C96.0634 30.9838 96.5344 30.7918 97.0244 30.7945H134.231C134.721 30.7918 135.192 30.9838 135.541 31.3283C135.89 31.6729 136.088 32.1418 136.092 32.6322V115.755C136.088 116.245 135.89 116.714 135.541 117.059C135.192 117.403 134.721 117.595 134.231 117.592Z" fill="white"/>
<path d="M136.092 57.6904H95.1641V58.2634H136.092V57.6904Z" fill="#282F46"/>
<path d="M136.234 90.3789H95.3066V90.9518H136.234V90.3789Z" fill="#282F46"/>
<path d="M108.615 30.7949H108.043V117.879H108.615V30.7949Z" fill="#282F46"/>
<path d="M122.926 30.7949H122.354V117.879H122.926V30.7949Z" fill="#282F46"/>
</g>
<defs>
<clipPath id="clip0_166_2147">
<rect width="249" height="149" fill="white"/>
</clipPath>
</defs>
</svg>
