<svg width="140" height="115" viewBox="0 0 140 115" fill="none" xmlns="http://www.w3.org/2000/svg">
<g clip-path="url(#clip0_166_2003)">
<path d="M34.6067 104.934L34.8904 110.947L34.8905 110.947C34.9383 111.963 34.5827 112.957 33.9017 113.71C33.2208 114.462 32.2703 114.912 31.2594 114.961L31.1355 114.966L30.6709 105.122L34.6067 104.934Z" fill="#031203"/>
<path d="M119.648 94.7732C116.799 100.362 113.185 105.767 108.613 110.659C108.512 110.769 108.409 110.877 108.306 110.986L97.4736 105.831C97.5399 105.721 97.6126 105.596 97.6907 105.461C102.344 97.4575 130.432 48.6385 129.545 37.5815C129.648 38.4935 132.977 68.6515 119.648 94.7732Z" fill="#E6E6E6"/>
<path d="M110.703 111.653C110.551 111.739 110.396 111.824 110.239 111.906L102.113 108.039C102.227 107.958 102.359 107.862 102.511 107.754C105.001 105.958 112.404 100.567 119.647 94.773C127.432 88.5468 135.034 81.8571 136.162 78.6638C135.933 79.3961 128.808 101.654 110.703 111.653Z" fill="#E6E6E6"/>
<path d="M13.6872 114.726C20.6133 114.726 26.2279 109.082 26.2279 102.12C26.2279 95.1575 20.6133 89.5134 13.6872 89.5134C6.76116 89.5134 1.14648 95.1575 1.14648 102.12C1.14648 109.082 6.76116 114.726 13.6872 114.726Z" fill="#031203"/>
<path d="M18.7105 96.8298H8.66372C8.21978 96.8303 7.79417 97.0078 7.48025 97.3234C7.16634 97.639 6.98976 98.0668 6.98926 98.5131V105.727C6.98976 106.173 7.16633 106.601 7.48025 106.917C7.79416 107.232 8.21978 107.41 8.66372 107.41H18.7105C19.1545 107.41 19.5801 107.232 19.894 106.917C20.2079 106.601 20.3845 106.173 20.385 105.727V98.5131C20.3845 98.0668 20.2079 97.6389 19.894 97.3234C19.5801 97.0078 19.1545 96.8303 18.7105 96.8298ZM18.7105 97.7917C18.7705 97.7919 18.8302 97.7998 18.8882 97.815L13.6883 101.985L8.51873 97.8065C8.56643 97.7966 8.61501 97.7917 8.66371 97.7917H18.7105ZM18.7105 106.448H8.66372C8.47346 106.448 8.29106 106.372 8.15652 106.237C8.02199 106.102 7.94631 105.918 7.9461 105.727V98.5778L13.3874 102.976C13.4721 103.044 13.5775 103.082 13.6862 103.082C13.7949 103.082 13.9005 103.045 13.9855 102.977L19.4282 98.6124V105.727C19.428 105.918 19.3523 106.102 19.2177 106.237C19.0832 106.372 18.9008 106.448 18.7105 106.448Z" fill="white"/>
<path d="M62.0847 83.9195L64.8907 83.9427C65.1746 83.9451 65.4556 83.8852 65.7141 83.7671C65.9727 83.6491 66.2025 83.4758 66.3875 83.2593C66.5725 83.0428 66.7084 82.7883 66.7855 82.5136C66.8627 82.2389 66.8793 81.9507 66.8342 81.6689C66.7857 81.3656 66.6671 81.0779 66.4878 80.8292C66.3086 80.5804 66.0737 80.3774 65.8022 80.2365C65.5306 80.0956 65.23 80.0207 64.9244 80.0179C64.6188 80.0151 64.3169 80.0845 64.0428 80.2205L61.3967 81.533L52.3459 83.562L48.4685 79.5769L46.2412 83.2644L51.4735 87.3281L62.0847 83.9195Z" fill="#FFB8B8"/>
<path d="M61.5585 113.062L58.2525 113.701C55.9943 106.546 53.5477 99.7695 53.5479 94.5285C50.3522 98.1038 46.3892 100.149 41.7227 100.792L42.2313 92.8668L46.0458 90.8217L51.884 88.1131C52.3952 87.8759 52.9466 87.7388 53.5088 87.709C54.6018 87.6512 55.6774 88.0019 56.5286 88.6935C57.3798 89.3851 57.9465 90.3689 58.1194 91.4553L61.5585 113.062Z" fill="#F5F5F5"/>
<path d="M45.7284 99.8331L44.4108 100.84C43.8442 101.273 43.1748 101.549 42.4692 101.641C41.7635 101.734 41.046 101.639 40.388 101.367C36.614 98.5232 33.9327 99.3621 31.5027 103.654C28.5879 100.347 27.8687 95.5713 30.4701 90.6301L44.9019 90.9497L47.8264 90.0549L45.7284 99.8331Z" fill="#F5F5F5"/>
<path d="M40.9223 114.642C40.0953 114.898 39.2052 114.853 38.4079 114.515C37.6105 114.178 36.9568 113.569 36.5613 112.795C35.2643 111.647 34.17 110.003 33.2208 108.003C32.5398 106.537 31.9551 105.027 31.4703 103.483C30.8135 101.444 31.9117 99.2166 33.9557 98.6066C34.0164 98.5884 34.078 98.5713 34.1402 98.5553C36.8688 97.8511 39.6709 99.4331 40.6036 102.105L43.3157 109.875C43.4759 110.334 43.5446 110.82 43.5179 111.306C43.4912 111.792 43.3696 112.268 43.16 112.706C42.9504 113.144 42.6569 113.537 42.2964 113.862C41.9358 114.186 41.5152 114.436 41.0586 114.597C41.0135 114.613 40.968 114.628 40.9223 114.642Z" fill="#F5F5F5"/>
<path opacity="0.2" d="M32.7588 107.119C32.7588 107.119 35.9376 110.698 36.5734 112.743L32.7588 107.119Z" fill="black"/>
<path d="M20.4303 90.2282L19.3665 92.8384C19.2588 93.1026 19.2098 93.3871 19.2227 93.6722C19.2357 93.9573 19.3104 94.2362 19.4416 94.4893C19.5728 94.7424 19.7574 94.9637 19.9824 95.1378C20.2074 95.3119 20.4675 95.4345 20.7445 95.4971C21.0427 95.5645 21.3524 95.5607 21.6488 95.4858C21.9451 95.4109 22.2199 95.2672 22.4509 95.0661C22.6819 94.865 22.8627 94.6122 22.9788 94.328C23.0949 94.0439 23.143 93.7363 23.1193 93.43L22.8901 90.4727L24.3786 81.272L29.4997 79.1337L26.9214 75.6851L21.2244 79.0586L20.4303 90.2282Z" fill="#FFB8B8"/>
<path d="M45.8556 90.63C42.2022 96.7988 34.919 99.1875 28.681 94.357C29.7783 90.7327 33.3211 80.7158 31.0324 80.3324C26.1729 82.3809 26.1658 77.5711 25.2568 75.1639L36.3191 71.0737L42.2953 72.7354L43.5203 73.1723C44.3176 73.4567 45.0091 73.9797 45.5018 74.671C45.9946 75.3622 46.2649 76.1885 46.2765 77.0389C43.7661 80.6846 41.9078 84.5736 45.8556 90.63Z" fill="#031203"/>
<path d="M47.254 85.645L42.8672 82.0021L44.3294 73.5022L50.3056 79.8931L47.254 85.645Z" fill="#031203"/>
<path d="M120.044 27.2527H119.417V9.99058C119.417 7.34091 118.37 4.79977 116.506 2.92617C114.642 1.05258 112.114 0 109.478 0H73.0967C70.4609 0 67.933 1.05258 66.0691 2.92617C64.2053 4.79977 63.1582 7.34091 63.1582 9.99058V104.692C63.1582 107.342 64.2053 109.883 66.0691 111.757C67.933 113.63 70.4609 114.683 73.0967 114.683H109.478C112.114 114.683 114.642 113.63 116.506 111.757C118.37 109.883 119.417 107.342 119.417 104.692V39.5402H120.044L120.044 27.2527Z" fill="#3F3D56"/>
<path d="M109.879 2.59913H105.13C105.349 3.1374 105.432 3.72144 105.373 4.29978C105.314 4.87812 105.115 5.433 104.792 5.91553C104.47 6.39807 104.034 6.79344 103.523 7.06682C103.013 7.34019 102.444 7.48317 101.865 7.48316H81.0228C80.4445 7.48312 79.8751 7.34011 79.3648 7.06675C78.8544 6.79339 78.4188 6.39807 78.0963 5.9156C77.7737 5.43313 77.5742 4.87833 77.5152 4.30007C77.4562 3.72181 77.5395 3.13784 77.7579 2.5996H73.3216C71.3531 2.5996 69.4653 3.38568 68.0733 4.78491C66.6814 6.18414 65.8994 8.0819 65.8994 10.0607V104.623C65.8994 106.602 66.6814 108.499 68.0733 109.899C69.4653 111.298 71.3531 112.084 73.3216 112.084H109.878C111.846 112.084 113.734 111.298 115.126 109.899C116.518 108.499 117.3 106.602 117.3 104.623V104.623V10.0602C117.3 8.08142 116.518 6.18366 115.126 4.78443C113.734 3.3852 111.846 2.59912 109.878 2.59912H109.879L109.879 2.59913Z" fill="white"/>
<path d="M91.6636 106.799C93.9146 106.799 95.7394 104.965 95.7394 102.702C95.7394 100.44 93.9146 98.6052 91.6636 98.6052C89.4127 98.6052 87.5879 100.44 87.5879 102.702C87.5879 104.965 89.4127 106.799 91.6636 106.799Z" fill="#E6E6E6"/>
<path d="M75.1294 64.8125C74.7442 64.8125 74.4307 65.1722 74.4307 65.6143C74.4307 66.0563 74.7442 66.416 75.1294 66.416H108.071C108.456 66.416 108.77 66.0563 108.77 65.6143C108.77 65.1722 108.456 64.8125 108.071 64.8125H75.1294Z" fill="#E6E6E6"/>
<path d="M75.1294 83.7222C74.7442 83.7222 74.4307 84.0819 74.4307 84.5239C74.4307 84.966 74.7442 85.3257 75.1294 85.3257H108.071C108.456 85.3257 108.77 84.966 108.77 84.5239C108.77 84.0819 108.456 83.7222 108.071 83.7222H75.1294Z" fill="#E6E6E6"/>
<path d="M75.1294 69.623C74.7442 69.623 74.4307 69.9828 74.4307 70.4248C74.4307 70.8668 74.7442 71.2265 75.1294 71.2265H89.3044C89.6896 71.2265 90.0031 70.8668 90.0031 70.4248C90.0031 69.9828 89.6896 69.623 89.3044 69.623H75.1294Z" fill="#E6E6E6"/>
<path d="M75.1294 74.2083C74.7442 74.2083 74.4307 74.568 74.4307 75.01C74.4307 75.452 74.7442 75.8118 75.1294 75.8118H108.071C108.456 75.8118 108.77 75.452 108.77 75.01C108.77 74.568 108.456 74.2083 108.071 74.2083H75.1294Z" fill="#E6E6E6"/>
<path d="M75.1294 79.0188C74.7442 79.0188 74.4307 79.3785 74.4307 79.8205C74.4307 80.2626 74.7442 80.6223 75.1294 80.6223H89.3044C89.6896 80.6223 90.0031 80.2626 90.0031 79.8205C90.0031 79.3785 89.6896 79.0188 89.3044 79.0188H75.1294Z" fill="#E6E6E6"/>
<path d="M81.3486 28.3057H101.855C102.081 28.3059 102.298 28.3965 102.459 28.5575C102.619 28.7185 102.709 28.9368 102.709 29.1646V50.6328C102.709 50.8605 102.619 51.0788 102.459 51.2398C102.298 51.4008 102.081 51.4914 101.855 51.4917H81.3486C81.122 51.4914 80.9049 51.4008 80.7447 51.2398C80.5845 51.0788 80.4944 50.8605 80.4941 50.6328V29.1646C80.4944 28.9368 80.5845 28.7185 80.7447 28.5575C80.9049 28.3965 81.122 28.3059 81.3486 28.3057Z" fill="#031203"/>
<path d="M97.4853 47.0647C97.5615 47.0648 97.6371 47.0499 97.7076 47.0207C97.7781 46.9914 97.8421 46.9485 97.8961 46.8944C97.9501 46.8403 97.9929 46.776 98.0222 46.7052C98.0514 46.6344 98.0665 46.5585 98.0665 46.4818C98.0666 46.4052 98.0516 46.3293 98.0224 46.2585C97.9932 46.1876 97.9505 46.1233 97.8965 46.0691C97.8426 46.0149 97.7785 45.972 97.7081 45.9427C97.6376 45.9134 97.5621 45.8984 97.4858 45.8984H85.718C85.6417 45.8983 85.5662 45.9132 85.4957 45.9425C85.4252 45.9717 85.3611 46.0146 85.3072 46.0687C85.2532 46.1228 85.2103 46.1871 85.1811 46.2579C85.1518 46.3287 85.1368 46.4046 85.1367 46.4813C85.1367 46.5579 85.1517 46.6338 85.1809 46.7047C85.21 46.7755 85.2528 46.8398 85.3067 46.894C85.3607 46.9482 85.4247 46.9912 85.4952 47.0204C85.5657 47.0497 85.6412 47.0648 85.7174 47.0647H97.4853Z" fill="white"/>
<path d="M97.4853 43.6291C97.6392 43.6291 97.7867 43.5677 97.8955 43.4583C98.0043 43.349 98.0654 43.2007 98.0654 43.046C98.0654 42.8914 98.0043 42.743 97.8955 42.6337C97.7867 42.5243 97.6392 42.4629 97.4853 42.4629H85.7181C85.5642 42.4628 85.4166 42.5242 85.3078 42.6335C85.199 42.7428 85.1378 42.8911 85.1377 43.0457C85.1376 43.2004 85.1987 43.3487 85.3074 43.4581C85.4161 43.5675 85.5636 43.629 85.7175 43.6291H97.4853Z" fill="white"/>
<path d="M91.6015 32.7329C92.3237 32.7329 93.0296 32.9482 93.6301 33.3515C94.2305 33.7548 94.6985 34.328 94.9749 34.9987C95.2513 35.6694 95.3236 36.4074 95.1827 37.1194C95.0418 37.8314 94.694 38.4854 94.1834 38.9988C93.6728 39.5121 93.0221 39.8616 92.3139 40.0033C91.6056 40.1449 90.8714 40.0722 90.2042 39.7944C89.537 39.5166 88.9668 39.0461 88.5656 38.4425C88.1643 37.8389 87.9502 37.1293 87.9502 36.4034C87.9513 35.4302 88.3363 34.4973 89.0209 33.8092C89.7054 33.1211 90.6335 32.734 91.6015 32.7329Z" fill="white"/>
<path d="M45.0129 69.836H34.1731C33.9501 69.8358 33.7363 69.7466 33.5786 69.5881C33.421 69.4296 33.3323 69.2147 33.332 68.9906V64.2938C33.332 62.6245 33.9917 61.0237 35.1658 59.8434C36.34 58.6631 37.9325 58 39.593 58C41.2535 58 42.846 58.6631 44.0202 59.8434C45.1943 61.0237 45.8539 62.6245 45.8539 64.2938V68.9906C45.8537 69.2147 45.765 69.4296 45.6073 69.5881C45.4497 69.7466 45.2359 69.8358 45.0129 69.836Z" fill="#031203"/>
<path d="M44.8179 67.2769C46.0339 65.0408 45.2164 62.2371 42.9919 61.0147C40.7674 59.7923 37.9783 60.6141 36.7623 62.8503C35.5463 65.0864 36.3639 67.8901 38.5883 69.1125C40.8128 70.3349 43.6019 69.5131 44.8179 67.2769Z" fill="#FFB6B6"/>
<path d="M47.335 64.8882H40.7067L40.6387 63.9316L40.2988 64.8882H39.2782L39.1435 62.9923L38.47 64.8882H36.4951V64.7943C36.4966 63.4744 37.0189 62.2089 37.9473 61.2755C38.8758 60.3422 40.1347 59.8172 41.4478 59.8157H42.3823C43.6954 59.8172 44.9542 60.3422 45.8827 61.2755C46.8112 62.2089 47.3335 63.4744 47.335 64.7943V64.8882Z" fill="#031203"/>
<path d="M40.6528 70.8377C40.6029 70.8376 40.5531 70.8332 40.5039 70.8245L35.6504 69.9636V61.9001H40.9932L40.8609 62.0552C39.0206 64.2128 40.4071 67.7114 41.3973 69.6048C41.4703 69.7435 41.5029 69.9 41.4912 70.0565C41.4796 70.2129 41.4242 70.3629 41.3315 70.4891C41.2539 70.597 41.1519 70.6849 41.0339 70.7455C40.9159 70.8061 40.7853 70.8377 40.6528 70.8377Z" fill="#031203"/>
<path d="M56.8125 110.649L62.8007 110.649H62.8009C63.813 110.649 64.7836 111.053 65.4992 111.772C66.2149 112.492 66.617 113.467 66.617 114.485V114.609L56.8127 114.61L56.8125 110.649Z" fill="#031203"/>
<path d="M139.529 115H0.326681C0.285106 115 0.245233 114.983 0.215835 114.954C0.186437 114.924 0.169922 114.884 0.169922 114.842C0.169922 114.801 0.186437 114.761 0.215835 114.731C0.245233 114.701 0.285106 114.685 0.326681 114.685H139.529C139.57 114.685 139.61 114.701 139.64 114.731C139.669 114.761 139.686 114.801 139.686 114.842C139.686 114.884 139.669 114.924 139.64 114.954C139.61 114.983 139.57 115 139.529 115Z" fill="#CACACA"/>
</g>
<defs>
<clipPath id="clip0_166_2003">
<rect width="139.516" height="115" fill="white" transform="translate(0.169922)"/>
</clipPath>
</defs>
</svg>
